<svg width="72" height="72" viewBox="0 0 72 72" fill="none" xmlns="http://www.w3.org/2000/svg">
<g clip-path="url(#clip0)">
<path d="M8.66284 24.7893H71.0113V68.4478H8.66284V24.7893Z" fill="#DDF9FF"/>
<path d="M16.0576 34.3275C18.0843 34.3275 19.7272 32.6845 19.7272 30.6578C19.7272 28.6311 18.0843 26.9882 16.0576 26.9882C14.0309 26.9882 12.3879 28.6311 12.3879 30.6578C12.3879 32.6845 14.0309 34.3275 16.0576 34.3275Z" fill="white"/>
<path d="M30.207 34.3275C32.2337 34.3275 33.8766 32.6845 33.8766 30.6578C33.8766 28.6311 32.2337 26.9882 30.207 26.9882C28.1803 26.9882 26.5374 28.6311 26.5374 30.6578C26.5374 32.6845 28.1803 34.3275 30.207 34.3275Z" fill="white"/>
<path d="M44.3567 34.3275C46.3833 34.3275 48.0263 32.6845 48.0263 30.6578C48.0263 28.6311 46.3833 26.9882 44.3567 26.9882C42.33 26.9882 40.687 28.6311 40.687 30.6578C40.687 32.6845 42.33 34.3275 44.3567 34.3275Z" fill="white"/>
<path d="M58.5058 34.3275C60.5325 34.3275 62.1755 32.6845 62.1755 30.6578C62.1755 28.6311 60.5325 26.9882 58.5058 26.9882C56.4791 26.9882 54.8362 28.6311 54.8362 30.6578C54.8362 32.6845 56.4791 34.3275 58.5058 34.3275Z" fill="white"/>
<path d="M16.0576 48.0411C18.0843 48.0411 19.7272 46.3981 19.7272 44.3714C19.7272 42.3447 18.0843 40.7018 16.0576 40.7018C14.0309 40.7018 12.3879 42.3447 12.3879 44.3714C12.3879 46.3981 14.0309 48.0411 16.0576 48.0411Z" fill="white"/>
<path d="M30.207 48.0411C32.2337 48.0411 33.8766 46.3981 33.8766 44.3714C33.8766 42.3447 32.2337 40.7018 30.207 40.7018C28.1803 40.7018 26.5374 42.3447 26.5374 44.3714C26.5374 46.3981 28.1803 48.0411 30.207 48.0411Z" fill="white"/>
<path d="M44.3567 48.0411C46.3833 48.0411 48.0263 46.3981 48.0263 44.3714C48.0263 42.3447 46.3833 40.7018 44.3567 40.7018C42.33 40.7018 40.687 42.3447 40.687 44.3714C40.687 46.3981 42.33 48.0411 44.3567 48.0411Z" fill="white"/>
<path d="M58.5058 48.0411C60.5325 48.0411 62.1755 46.3981 62.1755 44.3714C62.1755 42.3447 60.5325 40.7018 58.5058 40.7018C56.4791 40.7018 54.8362 42.3447 54.8362 44.3714C54.8362 46.3981 56.4791 48.0411 58.5058 48.0411Z" fill="white"/>
<path d="M16.0576 61.7554C18.0843 61.7554 19.7272 60.1125 19.7272 58.0858C19.7272 56.0591 18.0843 54.4161 16.0576 54.4161C14.0309 54.4161 12.3879 56.0591 12.3879 58.0858C12.3879 60.1125 14.0309 61.7554 16.0576 61.7554Z" fill="white"/>
<path d="M30.207 61.7554C32.2337 61.7554 33.8766 60.1125 33.8766 58.0858C33.8766 56.0591 32.2337 54.4161 30.207 54.4161C28.1803 54.4161 26.5374 56.0591 26.5374 58.0858C26.5374 60.1125 28.1803 61.7554 30.207 61.7554Z" fill="white"/>
<path d="M44.3567 61.7554C46.3833 61.7554 48.0263 60.1125 48.0263 58.0858C48.0263 56.0591 46.3833 54.4161 44.3567 54.4161C42.33 54.4161 40.687 56.0591 40.687 58.0858C40.687 60.1125 42.33 61.7554 44.3567 61.7554Z" fill="white"/>
<path d="M58.5058 61.7554C60.5325 61.7554 62.1755 60.1125 62.1755 58.0858C62.1755 56.0591 60.5325 54.4161 58.5058 54.4161C56.4791 54.4161 54.8362 56.0591 54.8362 58.0858C54.8362 60.1125 56.4791 61.7554 58.5058 61.7554Z" fill="white"/>
<path d="M3.58558 57.2338C3.85666 57.2338 4.11664 57.1261 4.30832 56.9344C4.5 56.7427 4.60769 56.4827 4.60769 56.2117V53.5834C4.60769 53.3123 4.5 53.0523 4.30832 52.8606C4.11664 52.669 3.85666 52.5613 3.58558 52.5613C3.3145 52.5613 3.05453 52.669 2.86284 52.8606C2.67116 53.0523 2.56348 53.3123 2.56348 53.5834V56.2117C2.5634 56.3459 2.58979 56.4788 2.64112 56.6029C2.69246 56.7269 2.76775 56.8396 2.86267 56.9346C2.9576 57.0295 3.07031 57.1048 3.19435 57.1561C3.31839 57.2075 3.45134 57.2338 3.58558 57.2338Z" fill="#124E78"/>
<path d="M70.978 11.753C71.2491 11.753 71.509 11.6454 71.7007 11.4537C71.8924 11.262 72.0001 11.002 72.0001 10.7309V6.58878C72.0002 6.45454 71.9738 6.32159 71.9224 6.19755C71.8711 6.07351 71.7958 5.9608 71.7009 5.86588C71.606 5.77095 71.4933 5.69566 71.3692 5.64433C71.2452 5.59299 71.1122 5.5666 70.978 5.56668H57.8781V1.02211C57.8781 0.751026 57.7704 0.49105 57.5787 0.299368C57.387 0.107686 57.1271 1.6708e-07 56.856 1.6708e-07H52.4977C52.3635 -7.6611e-05 52.2305 0.0263086 52.1065 0.077647C51.9825 0.128985 51.8697 0.20427 51.7748 0.299197C51.6799 0.394123 51.6046 0.50683 51.5533 0.630872C51.5019 0.754914 51.4755 0.887859 51.4756 1.02211V5.56668H40.483V1.02211C40.4831 0.887859 40.4567 0.754914 40.4054 0.630872C40.354 0.50683 40.2787 0.394123 40.1838 0.299197C40.0889 0.20427 39.9762 0.128985 39.8521 0.077647C39.7281 0.0263086 39.5952 -7.6611e-05 39.4609 1.6708e-07H35.1027C34.9684 -7.6611e-05 34.8355 0.0263086 34.7114 0.077647C34.5874 0.128985 34.4747 0.20427 34.3797 0.299197C34.2848 0.394123 34.2095 0.50683 34.1582 0.630872C34.1069 0.754914 34.0805 0.887859 34.0805 1.02211V5.56668H23.0891V1.02211C23.0892 0.887859 23.0628 0.754914 23.0115 0.630872C22.9601 0.50683 22.8848 0.394123 22.7899 0.299197C22.695 0.20427 22.5823 0.128985 22.4582 0.077647C22.3342 0.0263086 22.2013 -7.6611e-05 22.067 1.6708e-07H17.7076C17.4365 1.6708e-07 17.1765 0.107686 16.9848 0.299368C16.7932 0.49105 16.6855 0.751026 16.6855 1.02211V5.56668H3.58558C3.45134 5.5666 3.31839 5.59299 3.19435 5.64433C3.07031 5.69566 2.9576 5.77095 2.86267 5.86588C2.76775 5.9608 2.69246 6.07351 2.64112 6.19755C2.58979 6.32159 2.5634 6.45454 2.56348 6.58878V48.5284C2.56348 48.7995 2.67116 49.0595 2.86284 49.2511C3.05453 49.4428 3.3145 49.5505 3.58558 49.5505C3.85666 49.5505 4.11664 49.4428 4.30832 49.2511C4.5 49.0595 4.60769 48.7995 4.60769 48.5284V21.3509H69.9559V67.3924H4.60769V61.0261C4.60769 60.755 4.5 60.4951 4.30832 60.3034C4.11664 60.1117 3.85666 60.004 3.58558 60.004C3.3145 60.004 3.05453 60.1117 2.86284 60.3034C2.67116 60.4951 2.56348 60.755 2.56348 61.0261V68.4174C2.5634 68.5517 2.58979 68.6846 2.64112 68.8086C2.69246 68.9327 2.76775 69.0454 2.86267 69.1403C2.9576 69.2352 3.07031 69.3105 3.19435 69.3619C3.31839 69.4132 3.45134 69.4396 3.58558 69.4395H70.978C71.1122 69.4396 71.2452 69.4132 71.3692 69.3619C71.4933 69.3105 71.606 69.2352 71.7009 69.1403C71.7958 69.0454 71.8711 68.9327 71.9224 68.8086C71.9738 68.6846 72.0002 68.5517 72.0001 68.4174V15.2148C72.0001 14.9437 71.8924 14.6837 71.7007 14.492C71.509 14.3004 71.2491 14.1927 70.978 14.1927C70.7069 14.1927 70.4469 14.3004 70.2552 14.492C70.0636 14.6837 69.9559 14.9437 69.9559 15.2148V19.3067H4.60769V7.61089H16.6855V12.1555C16.6855 12.4265 16.7932 12.6865 16.9848 12.8782C17.1765 13.0699 17.4365 13.1776 17.7076 13.1776H22.0658C22.2001 13.1776 22.333 13.1513 22.4571 13.0999C22.5811 13.0486 22.6938 12.9733 22.7887 12.8784C22.8837 12.7834 22.959 12.6707 23.0103 12.5467C23.0616 12.4227 23.088 12.2897 23.0879 12.1555V7.61089H34.0805V12.1555C34.0805 12.2897 34.1069 12.4227 34.1582 12.5467C34.2095 12.6707 34.2848 12.7834 34.3797 12.8784C34.4747 12.9733 34.5874 13.0486 34.7114 13.0999C34.8355 13.1513 34.9684 13.1776 35.1027 13.1776H39.4609C39.5952 13.1776 39.7281 13.1513 39.8521 13.0999C39.9762 13.0486 40.0889 12.9733 40.1838 12.8784C40.2787 12.7834 40.354 12.6707 40.4054 12.5467C40.4567 12.4227 40.4831 12.2897 40.483 12.1555V7.61089H51.4745V12.1555C51.4744 12.2897 51.5008 12.4227 51.5521 12.5467C51.6034 12.6707 51.6787 12.7834 51.7737 12.8784C51.8686 12.9733 51.9813 13.0486 52.1053 13.0999C52.2294 13.1513 52.3623 13.1776 52.4966 13.1776H56.8548C57.1259 13.1776 57.3859 13.0699 57.5776 12.8782C57.7692 12.6865 57.8769 12.4265 57.8769 12.1555V7.61089H69.9547V10.7309C69.9548 10.8652 69.9813 10.9982 70.0328 11.1223C70.0842 11.2463 70.1596 11.359 70.2547 11.4539C70.3497 11.5488 70.4625 11.6241 70.5866 11.6754C70.7107 11.7267 70.8437 11.7531 70.978 11.753ZM21.0449 11.1334H18.7297V2.04421H21.0449V11.1334ZM38.44 11.1334H36.1248V2.04421H38.4388L38.44 11.1334ZM55.835 11.1334H53.5187V2.04421H55.8327L55.835 11.1334Z" fill="#124E78"/>
<path d="M16.0569 35.3497C16.9849 35.3498 17.892 35.0748 18.6637 34.5593C19.4353 34.0438 20.0367 33.3111 20.3919 32.4538C20.7471 31.5965 20.8401 30.6531 20.6592 29.743C20.4782 28.8328 20.0314 27.9968 19.3753 27.3406C18.7191 26.6844 17.8831 26.2375 16.973 26.0564C16.0629 25.8753 15.1195 25.9682 14.2622 26.3233C13.4048 26.6784 12.672 27.2797 12.1565 28.0513C11.6409 28.8229 11.3657 29.73 11.3657 30.6579C11.367 31.9018 11.8616 33.0944 12.7411 33.974C13.6205 34.8535 14.813 35.3483 16.0569 35.3497ZM16.0569 28.0104C16.5806 28.0103 17.0925 28.1655 17.528 28.4563C17.9634 28.7472 18.3029 29.1606 18.5033 29.6444C18.7038 30.1281 18.7563 30.6605 18.6542 31.1741C18.5521 31.6877 18.3 32.1595 17.9298 32.5298C17.5595 32.9002 17.0878 33.1524 16.5742 33.2546C16.0606 33.3568 15.5283 33.3044 15.0444 33.104C14.5606 32.9036 14.1471 32.5643 13.8562 32.1289C13.5652 31.6935 13.4099 31.1816 13.4099 30.6579C13.4106 29.9561 13.6896 29.2831 14.1859 28.7867C14.6821 28.2904 15.355 28.0112 16.0569 28.0104Z" fill="#124E78"/>
<path d="M30.2069 35.3497C31.1348 35.3497 32.0419 35.0745 32.8135 34.559C33.585 34.0435 34.1864 33.3107 34.5415 32.4534C34.8966 31.5961 34.9895 30.6527 34.8085 29.7426C34.6275 28.8325 34.1806 27.9965 33.5245 27.3404C32.8683 26.6842 32.0323 26.2374 31.1222 26.0563C30.2121 25.8753 29.2687 25.9682 28.4114 26.3233C27.5541 26.6784 26.8214 27.2798 26.3058 28.0513C25.7903 28.8229 25.5151 29.73 25.5151 30.6579C25.5165 31.9019 26.0113 33.0944 26.8909 33.974C27.7704 34.8536 28.963 35.3483 30.2069 35.3497ZM30.2069 28.0104C30.7305 28.0104 31.2424 28.1657 31.6778 28.4566C32.1132 28.7475 32.4525 29.161 32.6529 29.6448C32.8533 30.1286 32.9057 30.6609 32.8036 31.1745C32.7014 31.688 32.4493 32.1598 32.079 32.53C31.7087 32.9003 31.237 33.1525 30.7234 33.2546C30.2098 33.3568 29.6775 33.3043 29.1937 33.104C28.7099 32.9036 28.2965 32.5642 28.0055 32.1288C27.7146 31.6935 27.5593 31.1816 27.5593 30.6579C27.56 29.956 27.8391 29.2829 28.3355 28.7865C28.8319 28.2902 29.5049 28.011 30.2069 28.0104Z" fill="#124E78"/>
<path d="M44.3566 35.3497C45.2845 35.3497 46.1916 35.0745 46.9632 34.559C47.7347 34.0435 48.3361 33.3107 48.6912 32.4534C49.0463 31.5961 49.1392 30.6527 48.9582 29.7426C48.7771 28.8325 48.3303 27.9965 47.6741 27.3404C47.018 26.6842 46.182 26.2374 45.2719 26.0563C44.3618 25.8753 43.4184 25.9682 42.5611 26.3233C41.7038 26.6784 40.971 27.2798 40.4555 28.0513C39.94 28.8229 39.6648 29.73 39.6648 30.6579C39.6662 31.9019 40.1609 33.0944 41.0405 33.974C41.9201 34.8536 43.1126 35.3483 44.3566 35.3497ZM44.3566 28.0104C44.8802 28.0104 45.3921 28.1657 45.8274 28.4566C46.2628 28.7475 46.6022 29.161 46.8026 29.6448C47.003 30.1286 47.0554 30.6609 46.9532 31.1745C46.8511 31.688 46.5989 32.1598 46.2286 32.53C45.8584 32.9003 45.3866 33.1525 44.8731 33.2546C44.3595 33.3568 43.8272 33.3043 43.3434 33.104C42.8596 32.9036 42.4461 32.5642 42.1552 32.1288C41.8643 31.6935 41.709 31.1816 41.709 30.6579C41.7098 29.956 41.989 29.283 42.4853 28.7867C42.9817 28.2904 43.6546 28.0112 44.3566 28.0104Z" fill="#124E78"/>
<path d="M58.5067 35.3497C59.4346 35.3497 60.3417 35.0745 61.1133 34.559C61.8849 34.0435 62.4862 33.3107 62.8413 32.4534C63.1964 31.5961 63.2893 30.6527 63.1083 29.7426C62.9273 28.8325 62.4804 27.9965 61.8243 27.3404C61.1681 26.6842 60.3321 26.2374 59.422 26.0563C58.5119 25.8753 57.5685 25.9682 56.7112 26.3233C55.8539 26.6784 55.1212 27.2798 54.6056 28.0513C54.0901 28.8229 53.8149 29.73 53.8149 30.6579C53.8162 31.9019 54.3109 33.0945 55.1905 33.9742C56.0701 34.8538 57.2627 35.3485 58.5067 35.3497ZM58.5067 28.0104C59.0303 28.0104 59.5422 28.1657 59.9776 28.4566C60.413 28.7475 60.7523 29.161 60.9527 29.6448C61.1531 30.1286 61.2055 30.6609 61.1034 31.1745C61.0012 31.688 60.7491 32.1598 60.3788 32.53C60.0085 32.9003 59.5368 33.1525 59.0232 33.2546C58.5096 33.3568 57.9773 33.3043 57.4935 33.104C57.0097 32.9036 56.5963 32.5642 56.3053 32.1288C56.0144 31.6935 55.8592 31.1816 55.8592 30.6579C55.8598 29.956 56.1389 29.2829 56.6353 28.7865C57.1317 28.2902 57.8047 28.011 58.5067 28.0104Z" fill="#124E78"/>
<path d="M16.0569 49.0639C16.985 49.0641 17.8923 48.7891 18.6641 48.2736C19.4359 47.7582 20.0376 47.0254 20.3929 46.168C20.7482 45.3106 20.8413 44.3671 20.6604 43.4568C20.4795 42.5465 20.0326 41.7103 19.3765 41.054C18.7203 40.3976 17.8842 39.9506 16.9739 39.7694C16.0637 39.5883 15.1201 39.6812 14.2627 40.0363C13.4052 40.3914 12.6723 40.9928 12.1566 41.7645C11.641 42.5362 11.3657 43.4434 11.3657 44.3715C11.367 45.6154 11.8616 46.8081 12.741 47.6877C13.6205 48.5674 14.813 49.0623 16.0569 49.0639ZM16.0569 41.7269C16.5807 41.7267 17.0928 41.8818 17.5285 42.1727C17.9641 42.4635 18.3037 42.8771 18.5043 43.361C18.7049 43.8449 18.7575 44.3774 18.6554 44.8912C18.5533 45.4049 18.3011 45.8769 17.9308 46.2473C17.5604 46.6178 17.0885 46.8701 16.5748 46.9723C16.061 47.0745 15.5285 47.022 15.0445 46.8215C14.5606 46.6211 14.147 46.2815 13.856 45.846C13.5651 45.4104 13.4098 44.8983 13.4099 44.3745C13.4106 43.6726 13.6896 42.9996 14.1859 42.5033C14.6821 42.0069 15.355 41.7277 16.0569 41.7269Z" fill="#124E78"/>
<path d="M30.2069 49.0639C31.135 49.064 32.0422 48.7889 32.814 48.2733C33.5857 47.7578 34.1872 47.025 34.5425 46.1676C34.8977 45.3102 34.9907 44.3667 34.8097 43.4565C34.6287 42.5462 34.1819 41.7101 33.5257 41.0538C32.8695 40.3975 32.0334 39.9505 31.1231 39.7694C30.2129 39.5883 29.2694 39.6812 28.4119 40.0363C27.5545 40.3915 26.8216 40.9929 26.306 41.7646C25.7904 42.5362 25.5151 43.4435 25.5151 44.3715C25.5165 45.6155 26.0113 46.8081 26.8908 47.6878C27.7704 48.5674 28.9629 49.0623 30.2069 49.0639ZM30.2069 41.724C30.7307 41.7239 31.2428 41.8791 31.6783 42.17C32.1139 42.461 32.4534 42.8745 32.6539 43.3585C32.8544 43.8424 32.9069 44.3749 32.8047 44.8886C32.7026 45.4023 32.4504 45.8742 32.08 46.2446C31.7096 46.615 31.2377 46.8672 30.724 46.9694C30.2102 47.0715 29.6777 47.0191 29.1938 46.8186C28.7099 46.6181 28.2963 46.2785 28.0054 45.843C27.7145 45.4074 27.5592 44.8953 27.5593 44.3715C27.5607 43.6701 27.8402 42.9978 28.3365 42.502C28.8328 42.0063 29.5054 41.7275 30.2069 41.7269V41.724Z" fill="#124E78"/>
<path d="M44.3565 49.0639C45.2846 49.064 46.1919 48.7889 46.9636 48.2733C47.7354 47.7578 48.3369 47.025 48.6921 46.1676C49.0474 45.3102 49.1404 44.3667 48.9594 43.4565C48.7784 42.5462 48.3315 41.7101 47.6753 41.0538C47.0191 40.3975 46.183 39.9505 45.2728 39.7694C44.3625 39.5883 43.419 39.6812 42.5616 40.0363C41.7041 40.3915 40.9713 40.9929 40.4556 41.7646C39.94 42.5362 39.6648 43.4435 39.6648 44.3715C39.6662 45.6155 40.1609 46.8081 41.0405 47.6878C41.92 48.5674 43.1126 49.0623 44.3565 49.0639ZM44.3565 41.724C44.8803 41.7239 45.3924 41.8791 45.828 42.17C46.2636 42.461 46.6031 42.8745 46.8036 43.3585C47.0041 43.8424 47.0566 44.3749 46.9544 44.8886C46.8522 45.4023 46.6 45.8742 46.2296 46.2446C45.8593 46.615 45.3874 46.8672 44.8736 46.9694C44.3599 47.0715 43.8274 47.0191 43.3435 46.8186C42.8596 46.6181 42.446 46.2785 42.155 45.843C41.8641 45.4074 41.7089 44.8953 41.709 44.3715C41.7106 43.6701 41.9901 42.9979 42.4863 42.5022C42.9826 42.0065 43.6551 41.7277 44.3565 41.7269V41.724Z" fill="#124E78"/>
<path d="M58.5067 49.0639C59.4348 49.064 60.342 48.7889 61.1138 48.2733C61.8855 47.7578 62.487 47.025 62.8423 46.1676C63.1975 45.3102 63.2905 44.3667 63.1095 43.4565C62.9285 42.5462 62.4817 41.7101 61.8255 41.0538C61.1693 40.3975 60.3332 39.9505 59.4229 39.7694C58.5127 39.5883 57.5692 39.6812 56.7117 40.0363C55.8543 40.3915 55.1214 40.9929 54.6058 41.7646C54.0902 42.5362 53.8149 43.4435 53.8149 44.3715C53.8162 45.6155 54.3109 46.8082 55.1905 47.6879C56.07 48.5676 57.2627 49.0625 58.5067 49.0639ZM58.5067 41.724C59.0305 41.7239 59.5426 41.8791 59.9781 42.17C60.4137 42.461 60.7532 42.8745 60.9537 43.3585C61.1542 43.8424 61.2067 44.3749 61.1045 44.8886C61.0024 45.4023 60.7502 45.8742 60.3798 46.2446C60.0094 46.615 59.5375 46.8672 59.0238 46.9694C58.51 47.0715 57.9775 47.0191 57.4936 46.8186C57.0097 46.6181 56.5961 46.2785 56.3052 45.843C56.0143 45.4074 55.859 44.8953 55.8592 44.3715C55.8605 43.6701 56.14 42.9978 56.6363 42.502C57.1326 42.0063 57.8052 41.7275 58.5067 41.7269V41.724Z" fill="#124E78"/>
<path d="M16.0569 62.7776C16.9849 62.7777 17.892 62.5026 18.6637 61.9871C19.4353 61.4717 20.0367 60.739 20.3919 59.8817C20.7471 59.0244 20.8401 58.081 20.6592 57.1708C20.4782 56.2607 20.0314 55.4246 19.3753 54.7684C18.7191 54.1122 17.8831 53.6653 16.973 53.4842C16.0629 53.3032 15.1195 53.396 14.2622 53.7511C13.4048 54.1062 12.672 54.7076 12.1565 55.4791C11.6409 56.2507 11.3657 57.1578 11.3657 58.0858C11.3671 59.3296 11.8618 60.5221 12.7412 61.4016C13.6207 62.2812 14.8131 62.776 16.0569 62.7776ZM16.0569 55.4383C16.5806 55.4381 17.0925 55.5933 17.528 55.8842C17.9634 56.175 18.3029 56.5885 18.5033 57.0722C18.7038 57.556 18.7563 58.0883 18.6542 58.602C18.5521 59.1156 18.3 59.5874 17.9298 59.9577C17.5595 60.328 17.0878 60.5802 16.5742 60.6824C16.0606 60.7846 15.5283 60.7322 15.0444 60.5319C14.5606 60.3315 14.1471 59.9922 13.8562 59.5568C13.5652 59.1214 13.4099 58.6095 13.4099 58.0858C13.4106 57.3839 13.6896 56.711 14.1859 56.2146C14.6821 55.7182 15.355 55.439 16.0569 55.4383Z" fill="#124E78"/>
<path d="M30.2069 62.7775C31.1348 62.7775 32.0419 62.5024 32.8135 61.9868C33.585 61.4713 34.1864 60.7386 34.5415 59.8813C34.8966 59.0239 34.9895 58.0806 34.8085 57.1705C34.6275 56.2604 34.1806 55.4244 33.5245 54.7682C32.8683 54.1121 32.0323 53.6652 31.1222 53.4842C30.2121 53.3032 29.2687 53.3961 28.4114 53.7512C27.5541 54.1063 26.8214 54.7076 26.3058 55.4792C25.7903 56.2508 25.5151 57.1579 25.5151 58.0858C25.5167 59.3297 26.0115 60.5221 26.891 61.4017C27.7706 62.2812 28.963 62.776 30.2069 62.7775ZM30.2069 55.4383C30.7305 55.4383 31.2424 55.5935 31.6778 55.8844C32.1132 56.1754 32.4525 56.5889 32.6529 57.0726C32.8533 57.5564 32.9057 58.0887 32.8036 58.6023C32.7014 59.1159 32.4493 59.5876 32.079 59.9579C31.7087 60.3282 31.237 60.5803 30.7234 60.6825C30.2098 60.7846 29.6775 60.7322 29.1937 60.5318C28.7099 60.3314 28.2965 59.9921 28.0055 59.5567C27.7146 59.1213 27.5593 58.6094 27.5593 58.0858C27.56 57.3838 27.8391 56.7108 28.3355 56.2144C28.8319 55.718 29.5049 55.4389 30.2069 55.4383Z" fill="#124E78"/>
<path d="M44.3566 62.7775C45.2845 62.7775 46.1916 62.5024 46.9632 61.9868C47.7347 61.4713 48.3361 60.7386 48.6912 59.8813C49.0463 59.0239 49.1392 58.0806 48.9582 57.1705C48.7771 56.2604 48.3303 55.4244 47.6741 54.7682C47.018 54.1121 46.182 53.6652 45.2719 53.4842C44.3618 53.3032 43.4184 53.3961 42.5611 53.7512C41.7038 54.1063 40.971 54.7076 40.4555 55.4792C39.94 56.2508 39.6648 57.1579 39.6648 58.0858C39.6663 59.3297 40.1611 60.5221 41.0407 61.4017C41.9202 62.2812 43.1127 62.776 44.3566 62.7775ZM44.3566 55.4383C44.8802 55.4383 45.3921 55.5935 45.8274 55.8844C46.2628 56.1754 46.6022 56.5889 46.8026 57.0726C47.003 57.5564 47.0554 58.0887 46.9532 58.6023C46.8511 59.1159 46.5989 59.5876 46.2286 59.9579C45.8584 60.3282 45.3866 60.5803 44.8731 60.6825C44.3595 60.7846 43.8272 60.7322 43.3434 60.5318C42.8596 60.3314 42.4461 59.9921 42.1552 59.5567C41.8643 59.1213 41.709 58.6094 41.709 58.0858C41.7098 57.3839 41.989 56.7109 42.4853 56.2146C42.9817 55.7182 43.6546 55.439 44.3566 55.4383Z" fill="#124E78"/>
<path d="M58.5067 62.7775C59.4346 62.7775 60.3417 62.5024 61.1133 61.9868C61.8849 61.4713 62.4862 60.7386 62.8413 59.8813C63.1964 59.0239 63.2893 58.0806 63.1083 57.1705C62.9273 56.2604 62.4804 55.4244 61.8243 54.7682C61.1681 54.1121 60.3321 53.6652 59.422 53.4842C58.5119 53.3032 57.5685 53.3961 56.7112 53.7512C55.8539 54.1063 55.1212 54.7076 54.6056 55.4792C54.0901 56.2508 53.8149 57.1579 53.8149 58.0858C53.8163 59.3297 54.3111 60.5223 55.1907 61.4018C56.0702 62.2814 57.2628 62.7762 58.5067 62.7775ZM58.5067 55.4383C59.0303 55.4383 59.5422 55.5935 59.9776 55.8844C60.413 56.1754 60.7523 56.5889 60.9527 57.0726C61.1531 57.5564 61.2055 58.0887 61.1034 58.6023C61.0012 59.1159 60.7491 59.5876 60.3788 59.9579C60.0085 60.3282 59.5368 60.5803 59.0232 60.6825C58.5096 60.7846 57.9773 60.7322 57.4935 60.5318C57.0097 60.3314 56.5963 59.9921 56.3053 59.5567C56.0144 59.1213 55.8592 58.6094 55.8592 58.0858C55.8598 57.3838 56.1389 56.7108 56.6353 56.2144C57.1317 55.718 57.8047 55.4389 58.5067 55.4383Z" fill="#124E78"/>
</g>
<defs>
<clipPath id="clip0">
<rect width="72" height="72" fill="white"/>
</clipPath>
</defs>
</svg>
