<svg width="72" height="73" viewBox="0 0 72 73" fill="none" xmlns="http://www.w3.org/2000/svg">
<path d="M59.9008 70.6089H11.4131V35.1256L35.6569 17.3839L59.9008 35.1256V70.6089Z" fill="#DDF9FF"/>
<path fill-rule="evenodd" clip-rule="evenodd" d="M48.052 0.804896L48.0509 0.804025C47.7421 0.567458 47.3479 0.567441 47.0391 0.803974L47.0379 0.804896L37.5973 7.82799L37.5958 7.82904C37.2101 8.10686 37.1259 8.66188 37.4008 9.03078C37.5643 9.27711 37.8394 9.39057 38.0992 9.39057L38.5376 9.36918V13.3882L34.8761 10.5748C34.567 10.3372 34.1721 10.337 33.8629 10.574L33.862 10.5748L24.0209 17.9462L20.4367 15.2593L20.4358 15.2586C20.127 15.0219 19.7327 15.0218 19.4238 15.2584L19.4226 15.2593L3.78517 26.9053C3.54308 27.0726 3.43183 27.3554 3.43183 27.6224V32.9543C3.43183 33.2695 3.61796 33.588 3.89981 33.7173C4.18518 33.8788 4.53238 33.8283 4.79045 33.6394L4.79139 33.6387L5.89856 32.8181V69.031H2.74384C2.27606 69.031 1.88867 69.4279 1.88867 69.9071C1.88867 70.3864 2.27606 70.7833 2.74384 70.7833H64.5413C65.0091 70.7833 65.3965 70.3864 65.3965 69.9071C65.3965 69.4279 65.0091 69.031 64.5413 69.031H62.8395V33.6147H63.2779C63.5493 33.6147 63.791 33.4923 63.949 33.2509C64.2158 32.8583 64.1417 32.3356 63.7525 32.0543L63.5142 31.8712L56.5524 26.6894V9.39915L57.0425 9.42117H57.0509C57.3004 9.42117 57.5319 9.29255 57.7108 9.07251L57.7204 9.06074L57.7281 9.04761C57.8276 8.87769 57.9146 8.6734 57.8733 8.42C57.8361 8.19101 57.7214 7.98381 57.5192 7.85609L48.052 0.804896ZM41.07 7.42234L47.5452 2.59508L54.0479 7.42234H41.07ZM40.278 27.9175V9.14379H54.842V27.9175H40.278ZM36.1424 26.9421L25.4627 18.9928L34.3972 12.3357L38.5676 15.5476V28.7936C38.5676 29.2728 38.955 29.6697 39.4228 29.6697H55.6972C55.9779 29.6697 56.2465 29.5085 56.3996 29.2733L56.6487 28.8905L60.6689 31.8932H36.4876V27.6533C36.4876 27.3715 36.3662 27.1331 36.1473 26.9463L36.1424 26.9421ZM5.27308 27.9368L5.27539 27.935L19.9296 17.0189L34.7472 28.0623V31.2705L20.4346 20.5895L20.4331 20.5884C20.1513 20.3822 19.7348 20.3904 19.4361 20.5817L19.4304 20.5853L5.11208 31.2403V28.0605L5.27308 27.9368ZM7.5788 69.031H33.4838V32.4695L19.9297 22.3508L7.5788 31.5756V69.031ZM35.9825 33.7524L36.1651 33.6455H61.1292V69.031H57.7857V53.2336C57.7857 52.7544 57.3983 52.3575 56.9306 52.3575H50.7036C50.2358 52.3575 49.8484 52.7544 49.8484 53.2336V69.031H35.1941V33.8304H35.6024C35.7245 33.8304 35.8688 33.7912 35.9644 33.7586L35.9825 33.7524ZM51.6662 63.5406V63.5383C52.2061 63.4623 52.6116 63.014 52.6116 62.4487C52.6116 61.8585 52.1324 61.3957 51.5587 61.3592V54.1406H56.0754V69.031H51.5587V63.5406H51.6662Z" fill="#124E78"/>
<path fill-rule="evenodd" clip-rule="evenodd" d="M44.3833 12C43.9029 12 43.5133 12.3896 43.5133 12.87V22.8527C43.5133 23.3331 43.9029 23.7227 44.3833 23.7227H50.6788C51.1593 23.7227 51.5489 23.3331 51.5489 22.8527V12.87C51.5489 12.3896 51.1593 12 50.6788 12H44.3833ZM45.2534 16.9914V13.7401H49.8088V16.9914H45.2534ZM45.2534 21.9826V18.7313H49.8088V21.9826H45.2534ZM11.6933 35.2666C11.2128 35.2666 10.8232 35.6562 10.8232 36.1367V46.1193C10.8232 46.5998 11.2128 46.9893 11.6933 46.9893H17.9888C18.4693 46.9893 18.8588 46.5998 18.8588 46.1193V36.1367C18.8588 35.6562 18.4693 35.2666 17.9888 35.2666H11.6933ZM12.5633 40.258V37.0067H17.1188V40.258H12.5633ZM12.5633 45.2492V41.9979H17.1188V45.2492H12.5633ZM23.2632 35.2666C22.7827 35.2666 22.3932 35.6562 22.3932 36.1367V46.1193C22.3932 46.5998 22.7827 46.9893 23.2632 46.9893H29.5587C30.0392 46.9893 30.4288 46.5998 30.4288 46.1193V36.1367C30.4288 35.6562 30.0392 35.2666 29.5587 35.2666H23.2632ZM24.1332 40.258V37.0067H28.6887V40.258H24.1332ZM24.1332 45.2492V41.9979H28.6887V45.2492H24.1332ZM11.739 50.8635C11.2585 50.8635 10.8689 51.2531 10.8689 51.7335V61.7161C10.8689 62.1966 11.2585 62.5862 11.739 62.5862H18.0345C18.515 62.5862 18.9045 62.1966 18.9045 61.7161V51.7335C18.9045 51.2531 18.515 50.8635 18.0345 50.8635H11.739ZM12.609 55.8549V52.6036H17.1645V55.8549H12.609ZM12.609 60.8461V57.5948H17.1645V60.8461H12.609ZM23.2632 50.8635C22.7827 50.8635 22.3932 51.2531 22.3932 51.7335V61.7161C22.3932 62.1966 22.7827 62.5862 23.2632 62.5862H29.5587C30.0392 62.5862 30.4288 62.1966 30.4288 61.7161V51.7335C30.4288 51.2531 30.0392 50.8635 29.5587 50.8635H23.2632ZM24.1332 55.8549V52.6036H28.6887V55.8549H24.1332ZM24.1332 60.8461V57.5948H28.6887V60.8461H24.1332ZM39.8473 35.2666C39.3668 35.2666 38.9772 35.6562 38.9772 36.1367V46.1193C38.9772 46.5998 39.3668 46.9893 39.8473 46.9893H46.1428C46.6233 46.9893 47.0128 46.5998 47.0128 46.1193V36.1367C47.0128 35.6562 46.6233 35.2666 46.1428 35.2666H39.8473ZM40.7173 40.258V37.0067H45.2728V40.258H40.7173ZM40.7173 45.2492V41.9979H45.2728V45.2492H40.7173ZM39.8473 51.0789C39.3668 51.0789 38.9772 51.4685 38.9772 51.949V61.9316C38.9772 62.412 39.3668 62.8016 39.8473 62.8016H46.1428C46.6233 62.8016 47.0128 62.412 47.0128 61.9316V51.949C47.0128 51.4685 46.6233 51.0789 46.1428 51.0789H39.8473ZM40.7173 56.0703V52.819H45.2728V56.0703H40.7173ZM40.7173 61.0615V57.8102H45.2728V61.0615H40.7173ZM50.6455 35.2666C50.1651 35.2666 49.7755 35.6562 49.7755 36.1367V46.1193C49.7755 46.5998 50.1651 46.9893 50.6455 46.9893H56.9411C57.4215 46.9893 57.8111 46.5998 57.8111 46.1193V36.1367C57.8111 35.6562 57.4215 35.2666 56.9411 35.2666H50.6455ZM51.5156 40.258V37.0067H56.071V40.258H51.5156ZM51.5156 45.2492V41.9979H56.071V45.2492H51.5156Z" fill="#124E78"/>
<path d="M39.7708 9.83552C39.8382 9.36895 40.2033 8.99489 40.6589 8.92579C42.2927 8.678 43.0537 8.22401 43.0537 7.49698C43.0537 6.61209 41.8856 6.2912 41.0068 6.12692C40.6756 6.06483 40.3575 6.28987 40.297 6.62959C40.2365 6.96914 40.4561 7.2947 40.7877 7.35679C41.0358 7.40321 41.2317 7.4513 41.3856 7.49681C41.1663 7.56166 40.8701 7.63 40.4801 7.68918C39.4971 7.83828 38.709 8.64575 38.5636 9.65258C38.5059 10.0519 38.4393 10.3553 38.3759 10.5799C38.3127 10.3553 38.246 10.0519 38.1883 9.65266C38.0428 8.64575 37.2546 7.83828 36.2717 7.68918C35.8823 7.63008 35.5863 7.56191 35.3672 7.49706C35.5863 7.4323 35.8823 7.36396 36.2717 7.30486C37.2546 7.15584 38.0428 6.34846 38.1883 5.34155C38.246 4.94265 38.3125 4.6396 38.3758 4.41506C38.4248 4.58859 38.4758 4.80921 38.5232 5.08542C38.5815 5.42539 38.8983 5.65301 39.2297 5.593C39.5615 5.53333 39.7834 5.20928 39.7251 4.86922C39.566 3.94016 39.2529 2.70496 38.376 2.70496C37.6663 2.70496 37.2232 3.48458 36.9813 5.15844C36.9138 5.62501 36.5487 5.99907 36.0932 6.06817C34.4592 6.31612 33.6982 6.77011 33.6982 7.49706C33.6982 8.22401 34.4592 8.678 36.0931 8.92588C36.5486 8.99497 36.9138 9.36911 36.9813 9.83577C37.2232 11.5101 37.6663 12.2899 38.376 12.2899C39.0857 12.2898 39.5288 11.51 39.7708 9.83552Z" fill="#00AFD0"/>
<path d="M65.2975 29.8163C64.9187 29.7589 64.615 29.4477 64.559 29.0598C64.4194 28.0944 64.1317 26.8112 63.2486 26.8112C62.3655 26.8112 62.0778 28.0944 61.9384 29.0598C61.8823 29.4477 61.5785 29.7589 61.1998 29.8163C60.2575 29.9592 59.0049 30.2539 59.0049 31.1586C59.0049 32.0635 60.2575 32.3581 61.1998 32.5009C61.5785 32.5583 61.8823 32.8695 61.9384 33.2575C62.0779 34.2231 62.3655 35.5069 63.2486 35.5069C64.1318 35.5069 64.4195 34.2231 64.559 33.2574C64.615 32.8695 64.9187 32.5583 65.2974 32.5009C66.2397 32.358 67.4924 32.0635 67.4924 31.1586C67.4924 30.2539 66.2398 29.9592 65.2975 29.8163ZM65.1187 31.2643C64.2124 31.4017 63.4859 32.1462 63.3518 33.0745C63.3196 33.2975 63.2842 33.4865 63.2485 33.6451C63.2128 33.4865 63.1775 33.2976 63.1452 33.0746C63.0111 32.1462 62.2846 31.4018 61.3782 31.2643C61.1608 31.2313 60.9765 31.1951 60.8219 31.1586C60.9765 31.1221 61.1608 31.0859 61.3783 31.0529C62.2844 30.9155 63.011 30.1711 63.1452 29.2428C63.1774 29.0198 63.2128 28.831 63.2485 28.6725C63.2841 28.8309 63.3195 29.0198 63.3518 29.2427C63.4858 30.171 64.2124 30.9154 65.1187 31.0529C65.3361 31.0859 65.5204 31.1221 65.6751 31.1586C65.5205 31.1951 65.3362 31.2314 65.1187 31.2643Z" fill="#00AFD0"/>
<path d="M5.22999 23.208C4.97333 23.169 4.76743 22.9583 4.72952 22.6954C4.61018 21.8699 4.3584 20.7726 3.55343 20.7726C2.74846 20.7726 2.49675 21.8699 2.37741 22.6955C2.33942 22.9583 2.1336 23.1691 1.87702 23.208C1.07124 23.3302 0 23.5881 0 24.4128C0 25.2375 1.07124 25.4954 1.87702 25.6177C2.13368 25.6566 2.3395 25.8675 2.37741 26.1304C2.49675 26.956 2.74854 28.0537 3.55343 28.0537C4.35848 28.0537 4.61018 26.956 4.72952 26.1303C4.76751 25.8675 4.97333 25.6565 5.23008 25.6177C6.03578 25.4954 7.10693 25.2374 7.10693 24.4128C7.10693 23.588 6.0357 23.3302 5.22999 23.208ZM3.55335 25.7842C3.39406 25.1116 2.87146 24.5762 2.21512 24.4128C2.87154 24.2494 3.39406 23.714 3.55343 23.0416C3.71271 23.714 4.23531 24.2494 4.89174 24.4128C4.23531 24.5763 3.71271 25.1117 3.55335 25.7842Z" fill="#00AFD0"/>
<path d="M65.8063 66.273C65.6352 66.247 65.4977 66.1064 65.4724 65.931C65.4055 65.4675 65.2277 64.2363 64.3905 64.2363C63.5534 64.2363 63.3753 65.4675 63.3084 65.9309C63.283 66.1063 63.1458 66.247 62.9745 66.273C62.522 66.3416 61.3203 66.524 61.3203 67.3815C61.3203 68.2391 62.522 68.4214 62.9744 68.49C63.1457 68.516 63.283 68.6567 63.3083 68.8321C63.3753 69.2958 63.5533 70.5272 64.3904 70.5272C65.2276 70.5272 65.4055 69.2957 65.4724 68.832C65.4977 68.6567 65.635 68.516 65.8062 68.49C66.2587 68.4214 67.4604 68.2391 67.4604 67.3815C67.4604 66.524 66.2587 66.3416 65.8063 66.273ZM64.3904 68.2142C64.2276 67.8464 63.9367 67.5483 63.5777 67.3815C63.9366 67.2147 64.2276 66.9166 64.3904 66.5488C64.5532 66.9166 64.8442 67.2147 65.2031 67.3815C64.8442 67.5482 64.5531 67.8464 64.3904 68.2142Z" fill="#00AFD0"/>
<path d="M46.5957 29.0946C47.6275 29.0946 48.4668 28.2347 48.4668 27.1776C48.4668 26.1205 47.6275 25.2606 46.5957 25.2606C45.5639 25.2606 44.7246 26.1205 44.7246 27.1776C44.7246 28.2347 45.5639 29.0946 46.5957 29.0946ZM46.5957 26.5108C46.9545 26.5108 47.2465 26.81 47.2465 27.1776C47.2465 27.5452 46.9545 27.8444 46.5957 27.8444C46.2369 27.8444 45.9449 27.5452 45.9449 27.1776C45.9449 26.81 46.2369 26.5108 46.5957 26.5108Z" fill="#00AFD0"/>
<path d="M65.1201 24.2114C66.1519 24.2114 66.9912 23.3515 66.9912 22.2944C66.9912 21.2373 66.1519 20.3774 65.1201 20.3774C64.0883 20.3774 63.249 21.2373 63.249 22.2944C63.249 23.3515 64.0883 24.2114 65.1201 24.2114ZM65.1201 21.6276C65.479 21.6276 65.7709 21.9268 65.7709 22.2944C65.7709 22.6621 65.479 22.9612 65.1201 22.9612C64.7613 22.9612 64.4693 22.6621 64.4693 22.2944C64.4693 21.9268 64.7613 21.6276 65.1201 21.6276Z" fill="#00AFD0"/>
<path d="M67.8711 61.834C68.9029 61.834 69.7422 60.9741 69.7422 59.917C69.7422 58.8599 68.9029 58 67.8711 58C66.8393 58 66 58.8599 66 59.917C66 60.9741 66.8393 61.834 67.8711 61.834ZM67.8711 59.2502C68.2299 59.2502 68.5219 59.5493 68.5219 59.917C68.5219 60.2846 68.2299 60.5838 67.8711 60.5838C67.5123 60.5838 67.2203 60.2846 67.2203 59.917C67.2203 59.5493 67.5123 59.2502 67.8711 59.2502Z" fill="#00AFD0"/>
<path d="M12.6689 28.9529C13.7007 28.9529 14.54 28.093 14.54 27.0359C14.54 25.9788 13.7007 25.1189 12.6689 25.1189C11.6372 25.1189 10.7979 25.9788 10.7979 27.0359C10.7979 28.093 11.6372 28.9529 12.6689 28.9529ZM12.6689 26.3691C13.0278 26.3691 13.3198 26.6682 13.3198 27.0359C13.3198 27.4035 13.0278 27.7026 12.6689 27.7026C12.3101 27.7026 12.0181 27.4035 12.0181 27.0359C12.0181 26.6682 12.3101 26.3691 12.6689 26.3691Z" fill="#00AFD0"/>
<path d="M30.3528 3.32834C30.3528 2.27126 29.5135 1.41138 28.4817 1.41138C27.4499 1.41138 26.6106 2.27126 26.6106 3.32834C26.6106 4.38542 27.4499 5.2453 28.4817 5.2453C29.5135 5.2453 30.3528 4.38533 30.3528 3.32834ZM28.4817 3.99511C28.1228 3.99511 27.8309 3.69598 27.8309 3.32834C27.8309 2.9607 28.1228 2.66157 28.4817 2.66157C28.8405 2.66157 29.1325 2.9607 29.1325 3.32834C29.1325 3.69598 28.8405 3.99511 28.4817 3.99511Z" fill="#00AFD0"/>
</svg>
