<svg width="72" height="72" viewBox="0 0 72 72" fill="none" xmlns="http://www.w3.org/2000/svg">
<rect x="19.3171" y="6.14636" width="50.9268" height="50.0488" fill="#DDF9FF"/>
<path d="M70.7736 6.31363C71.4509 6.31363 71.9999 5.76449 71.9999 5.08724V1.22639C71.9999 0.549139 71.4511 0 70.7736 0H15.2764C14.5992 0 14.05 0.549139 14.05 1.22639V56.7232C14.05 57.4005 14.5992 57.9496 15.2764 57.9496H70.7733C71.4507 57.9496 71.9997 57.4005 71.9997 56.7232V9.17506C71.9997 8.49781 71.4508 7.94867 70.7733 7.94867C70.0959 7.94867 69.5469 8.49781 69.5469 9.17506V30.1866H64.6765C63.9991 30.1866 63.4501 30.7358 63.4501 31.413C63.4501 32.0903 63.999 32.6394 64.6765 32.6394H69.5469V55.497H34.5083V49.563C34.5083 48.8858 33.9591 48.3367 33.2819 48.3367C32.6046 48.3367 32.0555 48.8858 32.0555 49.563V55.497H16.5028V2.45278H32.0556V40.7334C32.0556 41.4106 32.6048 41.9597 33.282 41.9597C33.9593 41.9597 34.5084 41.4106 34.5084 40.7334V32.6394H56.3374C57.0148 32.6394 57.5638 32.0903 57.5638 31.413C57.5638 30.7358 57.015 30.1866 56.3374 30.1866H34.5083V2.45278H69.5472V5.08724C69.5472 5.76449 70.096 6.31363 70.7736 6.31363Z" fill="#124E78"/>
<path d="M10.3613 7.07778L6.31454 0.578249C6.09066 0.218671 5.69691 0 5.27349 0C4.84993 0 4.45632 0.218671 4.23245 0.578249L0.18555 7.07778C-0.0498559 7.45592 -0.061809 7.93194 0.154472 8.32133C0.370753 8.71072 0.781236 8.95231 1.22659 8.95231H4.0471V14.0806C4.0471 14.7579 4.59624 15.307 5.27349 15.307C5.95074 15.307 6.49988 14.7579 6.49988 14.0806V8.95231H9.32039C9.76575 8.95231 10.1762 8.71086 10.3925 8.32133C10.6088 7.9318 10.5968 7.45578 10.3613 7.07778ZM3.43482 6.49953L5.27335 3.5467L7.11188 6.49953H3.43482Z" fill="#124E78"/>
<path d="M10.3921 49.6285C10.1758 49.2391 9.76537 48.9977 9.32001 48.9977H6.4995V17.3509C6.4995 16.6737 5.95036 16.1245 5.27311 16.1245C4.59586 16.1245 4.04672 16.6737 4.04672 17.3509V48.9975H1.22635C0.780992 48.9975 0.370509 49.239 0.154228 49.6285C-0.0620531 50.018 -0.0501 50.494 0.185306 50.872L4.23206 57.3716C4.45594 57.7311 4.84955 57.9498 5.27311 57.9498C5.69681 57.9498 6.09042 57.7311 6.31415 57.3716L10.3609 50.872C10.5966 50.4938 10.6086 50.0179 10.3921 49.6285ZM5.27325 54.4033L3.43458 51.4504H7.11164L5.27325 54.4033Z" fill="#124E78"/>
<path d="M71.4217 65.6856L64.9222 61.6389C64.544 61.4035 64.068 61.3916 63.6786 61.6078C63.2892 61.8241 63.0478 62.2346 63.0478 62.6799V65.5004H23.0024V62.6799C23.0024 62.2346 22.7609 61.8241 22.3715 61.6078C21.9821 61.3916 21.5063 61.4035 21.1278 61.6389L14.6283 65.6856C14.2687 65.9095 14.05 66.3031 14.05 66.7267C14.05 67.1502 14.2687 67.5438 14.6283 67.7677L21.1278 71.8145C21.3258 71.9378 21.5508 71.9997 21.776 71.9997C21.9809 71.9997 22.1859 71.9485 22.3714 71.8455C22.7609 71.6293 23.0024 71.2188 23.0024 70.7734V67.9529H63.0476V70.7734C63.0476 71.2188 63.2894 71.6293 63.6785 71.8455C63.8641 71.9486 64.0691 71.9997 64.274 71.9997C64.4992 71.9997 64.7242 71.9377 64.9222 71.8145L71.4217 67.7677C71.7813 67.5438 71.9999 67.1502 71.9999 66.7267C71.9999 66.303 71.7813 65.9095 71.4217 65.6856ZM20.5496 68.5652L17.5967 66.7267L20.5496 64.8881V68.5652ZM65.5004 68.5652V64.8881L68.4535 66.7267L65.5004 68.5652Z" fill="#124E78"/>
</svg>
